<svg width="128" height="128" viewBox="0 0 128 128" fill="none" xmlns="http://www.w3.org/2000/svg">
    <path d="M0 61.3333C0 32.4205 0 17.9641 8.98205 8.98205C17.9641 0 32.4205 0 61.3333 0H66.6667C95.5795 0 110.036 0 119.018 8.98205C128 17.9641 128 32.4205 128 61.3333V66.6667C128 95.5795 128 110.036 119.018 119.018C110.036 128 95.5795 128 66.6667 128H61.3333C32.4205 128 17.9641 128 8.98205 119.018C0 110.036 0 95.5795 0 66.6667L0 61.3333Z" fill="#F5F5F5"/>
    <path d="M48.5349 30.8491C48.5349 30.0281 49.1462 29.3356 49.9609 29.2337L59.7283 28.0128C60.6999 27.8914 61.5581 28.649 61.5581 29.6281V61.754C61.5581 62.7332 60.6999 63.4908 59.7283 63.3693L49.9609 62.1484C49.1462 62.0465 48.5349 61.354 48.5349 60.533V30.8491Z" fill="#272727"/>
    <path d="M29 34.9188C29 34.0979 29.6113 33.4053 30.426 33.3035L40.1934 32.0826C41.1651 31.9611 42.0233 32.7187 42.0233 33.6979V59.3121C42.0233 60.2913 41.1651 61.0489 40.1934 60.9274L30.426 59.7065C29.6113 59.6047 29 58.9122 29 58.0912V34.9188Z" fill="#272727"/>
    <path d="M79.8599 30.7316C80.5846 30.9128 81.093 31.5639 81.093 32.3109V45.8819C81.093 46.7029 80.4817 47.3954 79.667 47.4972L69.8996 48.7181C68.928 48.8396 68.0698 48.082 68.0698 47.1028V29.8691C68.0698 28.81 69.0651 28.0329 70.0925 28.2898L79.8599 30.7316Z" fill="#272727"/>
    <path d="M99 36.3807C99 35.6337 98.4916 34.9826 97.7669 34.8014L87.9995 32.3595C86.972 32.1027 85.9767 32.8798 85.9767 33.9388V46.2889C85.9767 47.268 86.8349 48.0256 87.8066 47.9042L97.574 46.6833C98.3887 46.5814 99 45.8889 99 45.0679V36.3807Z" fill="#272727"/>
    <path d="M99 53.0166L67.2558 53.8306C67.7151 59.8014 72.694 64.412 78.6824 64.412H85.9767V71.3401L29 66.0399V99.9781L99 95.0944V53.0166Z" fill="#272727"/>
</svg>
