<svg width="64" height="64" viewBox="0 0 64 64" fill="none" xmlns="http://www.w3.org/2000/svg">
    <rect width="64" height="64" rx="32" fill="#333333" />
    <path fill-rule="evenodd" clip-rule="evenodd"
        d="M21.7487 19.0318C20.5771 19.1548 19.4283 19.6134 18.4815 20.336C18.2097 20.5434 17.6606 21.0814 17.4315 21.3647C16.6411 22.3423 16.1636 23.51 16.033 24.7847C16.0102 25.0072 15.9994 27.3205 16 31.8259C16.0011 38.8866 16.0003 38.8461 16.1416 39.5117C16.7365 42.3157 19.1724 44.4036 22.029 44.5581L22.4054 44.5784V34.9879V25.3974H31.9989H41.5924V31.7986V38.1998L38.3972 38.1917L35.202 38.1835L35.1939 34.991L35.1857 31.7985H31.9987H28.8117L28.8123 35.247C28.8129 38.9217 28.8145 38.9656 28.9724 39.636C29.5402 42.0475 31.4953 43.957 33.8887 44.4374C34.5374 44.5676 34.7601 44.5734 38.6454 44.5604C42.7503 44.5467 42.4637 44.5601 43.2796 44.3439C44.3002 44.0733 45.3056 43.4994 46.0609 42.7561C47.1633 41.6712 47.8097 40.3217 47.9653 38.7802C48.0119 38.318 48.0114 25.2402 47.9648 24.7847C47.8398 23.5657 47.396 22.4423 46.658 21.4767C46.4504 21.2051 45.9119 20.6565 45.6284 20.4276C44.65 19.6379 43.4813 19.1608 42.2056 19.0302C41.8019 18.989 22.1424 18.9904 21.7487 19.0318Z"
        fill="#FAFAFB" />
</svg>